# xmcd
#
# Track frame offsets: 
#        150
#        14101
#        28436
#        46550
#        64658
#        81650
#        102955
#        124876
#        150451
#        166196
#        181424
#        202058
#
# Disc length: 2970 seconds
#
# Revision: 2
# Processed by: cddbd v1.5.2PL0 Copyright (c) Steve Scherf et al.
# Submitted via: ExactAudioCopy v0.99pb4
#
DISCID=a40b980c
DTITLE=Федя Карманов - Бродяга
DYEAR=2003
DGENRE=Chanson
TTITLE0=На Севере
TTITLE1=Далёкй город
TTITLE2=Бродяга
TTITLE3=Камерная
TTITLE4=Этап
TTITLE5=Крытка
TTITLE6=Мадам
TTITLE7=Чики-брики
TTITLE8=Шизо
TTITLE9=Салара
TTITLE10=Журавли
TTITLE11=Прощальная (Дуэт с Полотно)
EXTD=2003 Artur Music
EXTT0=
EXTT1=
EXTT2=
EXTT3=
EXTT4=
EXTT5=
EXTT6=
EXTT7=
EXTT8=
EXTT9=
EXTT10=
EXTT11=
PLAYORDER=
